<svg xmlns="http://www.w3.org/2000/svg" width="187.998" height="42" viewBox="0 0 187.998 42">
  <g id="Logo" transform="translate(-415 -42.838)">
    <g id="Logo-2" data-name="Logo" transform="translate(331.762 -0.269)">
      <g id="l2iFBuyxLYSVwoflfwvReSs" transform="translate(83.238 43.107)">
        <g id="Group_2" data-name="Group 2" transform="translate(0 0)">
          <path id="pAijc24Cj" d="M2029.057,1299.372c-53.65-.178-88.094-.365-97.158-.544l-4.081-.084-1.267-.328a16.97,16.97,0,0,1-10.715-7.492,16.77,16.77,0,0,1-2.336-8.176,20.287,20.287,0,0,1,2.271-11.111c2.993-6.029,8.088-10.352,13.455-11.421.788-.15,1.933-.169,17.011-.187l16.157-.028v.319c0,.262-.31.731-1.943,2.926-4.691,6.329-6.709,8.786-9.251,11.271l-1.37,1.331h-15.951l-.328.281a6.432,6.432,0,0,0-.807,1.041c-.995,1.547-1.342,2.607-1.135,3.488a5.158,5.158,0,0,0,1.9,2.832c.225.122,10.7.141,81.385.141H2096v.356c0,.31-.244.713-1.764,2.982-4.156,6.179-6.484,9.123-9.026,11.44l-1.163,1.069-16.851-.019C2057.937,1299.447,2040.776,1299.41,2029.057,1299.372Zm54.43-1.753c.206-.188.291-.272.178-.178-.188.15-.919.159-12.441.159-38.151,0-122.586-.356-136.613-.562l-6.249-.094-1.116-.281c-6.718-1.641-10.884-5.954-11.8-12.2a20.51,20.51,0,0,1,.694-9.236,4.234,4.234,0,0,0,.244-.853,15.239,15.239,0,0,0-.854,2.5,18.8,18.8,0,0,0,.525,10.68c1.83,4.576,5.489,7.717,10.781,9.245a9.5,9.5,0,0,0,2.44.422c3.734.244,60.866.553,124.369.685,5.01.009,13.68.028,19.281.047l10.18.019Zm-1.351-2.363a5.51,5.51,0,0,0,1.51-1.247,34.459,34.459,0,0,0,4.466-5.523l.488-.731h-11.362v.75a2.722,2.722,0,0,1-.516,1.744l-.516.994.15.46a3.538,3.538,0,0,1,.122,1.238,2.82,2.82,0,0,1-.432,1.557,8.011,8.011,0,0,0-.4.806C2075.642,1295.4,2081.788,1295.349,2082.135,1295.256Zm-78.515-.441a4.964,4.964,0,0,1,.057-2.485c.1-.272.694-1.406,1.313-2.513l1.117-2.016-36.8-.047-36.8-.047-.516-.244a9.69,9.69,0,0,1-4.41-5.748,8.413,8.413,0,0,1,.844-5.589,9.851,9.851,0,0,1,3.612-4.032l.647-.328,7.685-.047,7.684-.047,1.21-1.238c.666-.684,1.624-1.744,2.121-2.344.948-1.144,2.937-3.723,2.937-3.816,0-.028-5.254-.056-11.672-.056-10.115,0-11.775.019-12.432.141-4.166.8-8.351,4.379-10.743,9.2a16.063,16.063,0,0,0-1.9,7.032,14.839,14.839,0,0,0,.441,4.51c1.163,4.594,4.776,7.876,10.208,9.273l1.248.319,7.478.094c6.465.075,40.017.253,59.224.309,3.434.009,6.54.028,6.906.047l.675.019Zm51.774.094a28.905,28.905,0,0,0,1.651-4.332c-.057-.019-.141.038-.188.122-.1.188-.544.2-1.482.019a1.846,1.846,0,0,0-.854-.047c-.31.159-.544.572-.985,1.7-.366.919-.422,1.144-.31,1.209a5.24,5.24,0,0,0,1.2.085h1.07l-.047.469a1.727,1.727,0,0,1-.113.544,5.588,5.588,0,0,1-1.107.075c-.8.009-1.042-.019-1.079-.112-.085-.234-.357-.141-.469.15l-.1.281h1.333C2055.075,1295.068,2055.272,1295.05,2055.394,1294.909Zm-48.049-1.669.385-.516h3.078v.516c0,.488.009.516.225.516.2,0,.244-.056.291-.394.028-.225.047-1.4.028-2.606-.028-2.166-.028-2.2-.225-2.232-.141-.019-.31.1-.582.422l-.375.45.366-.028.366-.038v1.313a12.155,12.155,0,0,1-.056,1.463c-.047.122-.244.15-1.182.15h-1.126l.037-.375c.028-.281.01-.347-.075-.253-.263.291-1.642,2.128-1.6,2.128A3.305,3.305,0,0,0,2007.345,1293.24Zm8.989-1.031a8.962,8.962,0,0,0,.535-1.613c-.1-.112-.206.085-.619,1.191a10,10,0,0,1-.507,1.191,3.545,3.545,0,0,1-1.163.178l-1.051.066v-.347a9.221,9.221,0,0,1,.722-2.185.083.083,0,0,0-.084-.122,15.14,15.14,0,0,0-1.257,3.075,4.314,4.314,0,0,0,.882-.066c1.154-.141,1.52-.141,1.52.038,0,.084.084.141.216.141C2015.714,1293.755,2015.808,1293.577,2016.333,1292.208Zm3.012,1.51a1.445,1.445,0,0,1,.056-.187c.047-.122-.019-.15-.328-.15h-.385v-.394a4.315,4.315,0,0,1,.309-1.2l.31-.8.516-.047c.385-.037.516-.084.535-.206.028-.141-.037-.169-.3-.169-.319,0-.338-.019-.338-.319a1.721,1.721,0,0,1,.094-.563c.066-.187.056-.244-.038-.244-.066,0-.225.253-.338.563-.207.553-.216.563-.572.563a.949.949,0,0,0-.366.038,1.5,1.5,0,0,1-.056.188c-.038.113,0,.15.141.15.319,0,.254.6-.178,1.707-.206.534-.375.994-.375,1.041a1.694,1.694,0,0,0,.657.065A3.02,3.02,0,0,0,2019.345,1293.718Zm4.476-.1a14.02,14.02,0,0,0,1.248-2.935c0-.085-.329-.113-1.314-.113-1.154,0-1.333.019-1.492.178a19.941,19.941,0,0,0-1.173,2.8l-.066.206h1.295C2023.324,1293.755,2023.661,1293.728,2023.821,1293.615Zm6.437-1.191c.282-.741.694-1.791.91-2.344l.385-1.013h.985a3.65,3.65,0,0,0,.976-.066,1.821,1.821,0,0,1,.056-.281l.056-.216h-3.95l-.15.281-.15.281h1.6v.4a25.771,25.771,0,0,1-1.473,4.172c-.028.056.009.112.084.112C2029.685,1293.755,2029.92,1293.287,2030.258,1292.424Zm2.88.131a8.91,8.91,0,0,1,.535-1.247,3.343,3.343,0,0,1,1-.15l.9-.056v.394c0,.647.188.506.554-.422l.178-.469-.769.122c-1.069.159-1.464.15-1.464-.019,0-.084-.084-.141-.206-.141-.188,0-.281.178-.807,1.529-.319.834-.582,1.556-.582,1.594s.047.065.113.047A5.8,5.8,0,0,0,2033.138,1292.555Zm5.611.928c.29-.009.394.028.394.131a.168.168,0,0,0,.179.141c.178,0,.281-.215,1.192-2.6l.225-.591h-1.182c-1.229,0-1.473.056-1.633.4-.094.188-.094.188.028.047s.3-.169,1.182-.169h1.042v.319a1.719,1.719,0,0,1-.094.563c-.084.244-.094.244-1.257.244-1.4,0-1.426.019-1.811,1.031l-.272.713.8-.122C2037.98,1293.54,2038.524,1293.484,2038.749,1293.484Zm4.053.066c.882-.1.966-.1,1.079.047q.3.408.563-.281c.094-.253.544-1.416,1-2.6a20.378,20.378,0,0,0,.779-2.194c-.1-.1-.244.15-.6,1.059l-.356.938-1.164.047a5.025,5.025,0,0,0-1.37.169c-.263.15-.376.356-.91,1.753-.319.834-.4,1.134-.31,1.191a.271.271,0,0,0,.225.028C2041.8,1293.69,2042.277,1293.615,2042.8,1293.549Zm4.185-1.388c.328-.853.6-1.557.6-1.566s-.056-.028-.113-.028a7.228,7.228,0,0,0-.75,1.6c-.432,1.116-.582,1.584-.478,1.566A6.411,6.411,0,0,0,2046.987,1292.161Zm1.586,1.294c.075-.169.3-.731.5-1.247l.357-.938.469-.066c.253-.028.77-.066,1.145-.066l.676-.009v.262a7.128,7.128,0,0,1-.413,1.313c-.31.788-.385,1.05-.272,1.031s.375-.61,1.145-2.654l.178-.478-.807.112c-1.191.169-1.708.169-1.708-.019q0-.14-.2-.112c-.169.019-.3.291-.751,1.435-.31.778-.582,1.482-.61,1.575C2048.188,1293.887,2048.432,1293.765,2048.573,1293.455Zm14.769.019.094-.281h-2.711v-.366a12.024,12.024,0,0,1,.75-2.307c.713-1.828.826-2.241.525-1.913-.094.1-1.2,2.888-1.989,4.988-.057.15.056.159,1.586.159h1.642Zm3.2.094c.094-.178.075-.188-.328-.188-.422,0-.422,0-.422-.328a5.225,5.225,0,0,1,.338-1.219l.347-.891h.488c.413,0,.507-.028.544-.187s0-.188-.328-.188h-.375l.047-.347a4.969,4.969,0,0,1,.113-.581c.056-.169.047-.215-.056-.178a1.371,1.371,0,0,0-.328.553c-.187.469-.235.506-.563.553-.253.028-.375.1-.394.216s.029.159.16.159c.309,0,.253.478-.179,1.585a8.128,8.128,0,0,0-.375,1.1c0,.1.14.131.61.131C2066.344,1293.755,2066.456,1293.728,2066.541,1293.568Zm2.909,0c.9-.141,1.22-.122,1.22.056,0,.094.066.131.207.113.178-.028.347-.385,1.21-2.607.553-1.416.985-2.6.967-2.616-.094-.1-.319.291-.638,1.135l-.347.9-1.21.037c-1.107.028-1.219.047-1.436.244a10.873,10.873,0,0,0-1.154,2.822c.038.056.178.075.319.056S2069.112,1293.615,2069.449,1293.568Zm-56.672-3.441a.135.135,0,0,0-.14-.122c-.1,0-.141.1-.132.4l.01.394.122-.281A1.841,1.841,0,0,0,2012.777,1290.127Zm35.279-.675a1.047,1.047,0,0,1,.056-.234c.038-.1.009-.15-.094-.15-.084,0-.15.038-.15.084a1,1,0,0,1-.057.234c-.037.1-.009.15.094.15C2047.991,1289.536,2048.057,1289.5,2048.057,1289.451Zm43.255-1.228c.113-.15.178-.281.15-.281a1.5,1.5,0,0,0-.244.281c-.112.159-.178.281-.15.281A1.194,1.194,0,0,0,2091.311,1288.223Zm1.361-1.988.7-1.059-80.242-.047c-44.136-.028-80.335-.084-80.438-.122s-.019.019.188.14l.375.216,79.734.028,79.725.019v.309a2.061,2.061,0,0,1-.422.938,3.043,3.043,0,0,0-.375.628C2091.94,1287.286,2092.287,1286.807,2092.672,1286.236Zm-162.331-4.107c-.647-1.594-.5-3.057.526-5.11.207-.412.31-.666.225-.563a13.385,13.385,0,0,0-1.135,2.344,3.209,3.209,0,0,0-.122,2.307,5.911,5.911,0,0,0,.694,1.584A2.7,2.7,0,0,0,1930.341,1282.129Zm18.662-7.923c.178-.122-.675-.141-7.581-.141-7.168.009-7.816.018-8.144.169-.347.15,0,.159,7.581.131C1947.708,1274.346,1948.834,1274.327,1949,1274.205Zm2.787-2.738c0-.075-.085,0-.469.422l-.422.441.45-.422A4.187,4.187,0,0,0,1951.79,1271.468Zm.525-.61.272-.309-.3.272a2.752,2.752,0,0,0-.31.309C1951.977,1271.205,1952.052,1271.139,1952.315,1270.858Zm-30.832-4.248a9.944,9.944,0,0,0,.751-.8,10.3,10.3,0,0,0-.844.8,9.873,9.873,0,0,0-.75.8A10.339,10.339,0,0,0,1921.484,1266.61Zm3.1-2.513a14.646,14.646,0,0,1,4.5-1.969c.788-.2.882-.2,15.275-.225l14.468-.038v.319a.821.821,0,0,1-.113.431c-.066.075-.075.1-.019.075a3.514,3.514,0,0,0,.5-.628l.4-.572-14.487.037-14.478.028-.91.206a14.645,14.645,0,0,0-3.509,1.275,18.321,18.321,0,0,0-2.862,1.847l-.319.291.375-.281C1923.614,1264.744,1924.139,1264.388,1924.58,1264.1Z" transform="translate(-1913.447 -1257.475)" fill="#fafafa"/>
          <path id="p2Rz8SPux" d="M16860,4573.633a4.146,4.146,0,0,1,.309-1.107l.3-.751.514-.028a7.785,7.785,0,0,1,1.033.047c.508.076.518.085.545.4a2.865,2.865,0,0,1-.234,1.032l-.271.7-1.1.028-1.1.029Z" transform="translate(-16719.762 -4538.173)" fill="#fafafa"/>
          <path id="pEIF8aFJ2" d="M13450,4561.055a4.363,4.363,0,0,1,.31-1.2l.312-.8,1.1-.028,1.1-.028v.329a5.553,5.553,0,0,1-.336,1.22l-.348.9H13450Z" transform="translate(-13341.756 -4525.548)" fill="#fafafa"/>
          <path id="p1Daj6P77Y" d="M15120,4700.788c0-.8-.019-.788,1.183-.788h1.068v.356c0,.591-.112.657-1.237.722l-1.014.066Z" transform="translate(-14996.086 -4665.225)" fill="#fafafa"/>
          <path id="pdTr3pWkN" d="M15620,4561.98a4.968,4.968,0,0,1,.676-1.9,5.5,5.5,0,0,1,1.136-.075h1v.31a4.709,4.709,0,0,1-.311,1.107l-.309.789-.461.065c-.263.028-.75.066-1.1.066l-.639.009Z" transform="translate(-15491.396 -4526.539)" fill="#fafafa"/>
          <path id="pLsBCOmJF" d="M18470,4562.064a7.49,7.49,0,0,1,.684-1.943c.057-.084.412-.122,1.156-.122h1.068v.263a5.378,5.378,0,0,1-.33,1.107l-.33.853-.578.066c-.311.028-.816.056-1.119.056C18470,4562.346,18470,4562.346,18470,4562.064Z" transform="translate(-18314.654 -4526.539)" fill="#fafafa"/>
          <path id="p9yQDErGh" d="M6120.169,1013.619c-.122-.066-.169-.216-.169-.525a10.088,10.088,0,0,1,.488-2.308c.047-.094,2.271-2.965,4.935-6.38s5.667-7.253,6.662-8.519c1.915-2.449,2.974-3.565,4.054-4.269,1.116-.723,1-.7,5.264-.676,3.7.028,3.8.037,4.175.235a5.627,5.627,0,0,1,2.233,3.594c.271,1.07,2.966,17.78,2.966,18.39,0,.272-.047.394-.179.469-.123.056-1.943.094-5.254.094-5.676,0-5.292.047-5.414-.7a.96.96,0,0,0-.1-.422,4.692,4.692,0,0,0-.535.432,3.361,3.361,0,0,1-.778.563c-.253.113-1.923.131-9.242.131C6123.368,1013.713,6120.272,1013.685,6120.169,1013.619Zm18.315-3.265a23.51,23.51,0,0,0,1.643-1.971c.675-.92.778-1.032,1.041-1.032l.29-.009.348,1.811c.188.985.366,1.877.394,1.97.047.15.272.159,2.909.159h2.871l-.057-.253c-.028-.15-.563-3.425-1.172-7.3-1.154-7.178-1.389-8.379-1.9-9.4-.488-1.013-.3-.966-3.744-.966h-2.975l-.459.3a8.833,8.833,0,0,0-1.107.966c-.356.357-3.387,4.082-6.746,8.257s-6.249,7.778-6.427,8l-.319.394h14.506Z" transform="translate(-6080.531 -990.931)" fill="#fafafa"/>
          <path id="pF06EUGBs" d="M7570,1808.163v-.46l2.964-3.856c2.947-3.828,2.965-3.847,3.3-3.847h.348l.591,3.875c.319,2.121.591,4.063.582,4.316v.441H7570Z" transform="translate(-7516.927 -1792.415)" fill="#fafafa"/>
          <path id="p11WIYfN67" d="M9500.863,1017.65c-.4-.225-.261-.638,2.618-8.247,1.529-4.053,3.378-8.951,4.11-10.884l1.331-3.519h19.4l.657.206a5.811,5.811,0,0,1,2.411,1.651,7.529,7.529,0,0,1,1.4,4.438,8.346,8.346,0,0,1-.733,4.738,7.686,7.686,0,0,1-4.748,3.65,9.5,9.5,0,0,0-1.05.394c-.027.028,1.444,1.529,3.284,3.34l3.331,3.293v.422c0,.328-.047.45-.18.525-.121.056-2.345.094-6.566.094h-6.38l-.356-.3c-.2-.169-1.464-1.295-2.816-2.487s-2.5-2.186-2.542-2.186-.46,1.07-.949,2.374a25.059,25.059,0,0,1-1.021,2.486C9511.88,1017.791,9501.117,1017.8,9500.863,1017.65Zm9.43-2.449c.018-.066.534-1.473,1.146-3.124,1.171-3.209,1.292-3.425,1.855-3.425.263.009.8.46,4.008,3.331l3.707,3.321,3.282.009h3.284l-3.208-3.209c-2.891-2.89-3.219-3.246-3.219-3.509,0-.3.008-.31.544-.366,3.546-.394,5.732-1.164,7.132-2.515a4,4,0,0,0,1.452-3.49c-.008-2.58-.91-4.175-2.674-4.682-.44-.131-1.481-.15-8.66-.131l-8.153.028-3.1,8.257c-1.708,4.541-3.218,8.566-3.36,8.942l-.254.676h3.088A13.394,13.394,0,0,0,9510.293,1015.2Z" transform="translate(-9429.511 -994.962)" fill="#fafafa"/>
          <path id="pnQgWmNbY" d="M10860,1694.309a52.514,52.514,0,0,1,1.98-5.433c.045-.047,1.8-.075,4.137-.066,3.33.019,4.091.047,4.193.15.095.084.142.347.142.769a2.291,2.291,0,0,1-.375,1.623l-.245.281h-6.107l-1.567,1.5c-1.342,1.276-1.612,1.5-1.867,1.5C10860.02,1694.637,10860,1694.609,10860,1694.309Z" transform="translate(-10776.057 -1682.265)" fill="#fafafa"/>
          <path id="pgeNBrWFO" d="M13070,1041.777c0-.253,1.191-3.659,3.754-10.725,2.073-5.7,3.819-10.5,3.885-10.677l.131-.328,5.264-.028,5.264-.019v.319c0,.178-1.023,3.125-2.383,6.868l-2.394,6.558,5.367.047c2.957.028,5.441.084,5.535.131.188.094.227.788.058,1.116s-3.707,5.376-4.392,6.277l-.618.816-9.73.009H13070Zm18.841-1.436a62.293,62.293,0,0,0,3.961-5.432c0-.047-2.309-.085-5.4-.085h-5.4v-.319c0-.244,3.284-9.383,4.757-13.258.039-.094-.806-.122-4.023-.122h-4.064l-.178.5c-.094.263-1.651,4.541-3.452,9.5s-3.359,9.233-3.463,9.5l-.168.488h16.775Z" transform="translate(-12965.32 -1019.727)" fill="#fafafa"/>
          <path id="p1FJqHaAV2" d="M13300,1208.747c0-.169,1.511-4.457,3.35-9.524l3.34-9.223h7.2v.328c0,.2-.929,2.881-2.317,6.69-1.267,3.49-2.326,6.427-2.354,6.521-.038.15.262.16,5.319.16h5.357v.319c0,.281-.244.6-2.036,2.674l-2.035,2.355H13300Z" transform="translate(-13193.163 -1188.132)" fill="#fafafa"/>
          <path id="p13ksokz5h" d="M15869.156,1046.946c-2.776-.338-4.54-1.07-5.939-2.468a6.481,6.481,0,0,1-1.782-3.434,9.285,9.285,0,0,1-.149-2.627c.026-.929.093-2,.149-2.374a14.039,14.039,0,0,1,1.032-3.19,15.748,15.748,0,0,1,8.454-7.365c1.444-.469,1.717-.488,6.474-.488a37.481,37.481,0,0,1,5.517.169c4.109.647,6.39,2.421,7.169,5.573a16.5,16.5,0,0,1,.038,5.095,14.411,14.411,0,0,1-10.848,11.034,26.61,26.61,0,0,1-4.878.188A47.131,47.131,0,0,1,15869.156,1046.946Zm9.384-1.154a13.2,13.2,0,0,0,6.746-3.762,11.955,11.955,0,0,0,3.875-8.726,6.039,6.039,0,0,0-.686-3.237c-.976-1.98-2.862-3.181-5.921-3.762a78.881,78.881,0,0,0-9.326-.131,13.87,13.87,0,0,0-7.956,4.851,11.371,11.371,0,0,0-2.891,7.441c0,4.673,2.824,7.131,8.613,7.506.657.047,2.422.066,3.913.047A16.842,16.842,0,0,0,15878.54,1045.792Z" transform="translate(-15730.399 -1024.68)" fill="#fafafa"/>
          <path id="p13492HYkE" d="M16037.988,1213.944a10.4,10.4,0,0,1-5.63-1.7,5.91,5.91,0,0,1-2.018-3.537,18.09,18.09,0,0,1,0-3.612c.536-4.222,4.477-8.613,8.868-9.88.74-.216.815-.216,5.488-.216a35.169,35.169,0,0,1,5.583.16c3.273.629,5.074,2.064,5.629,4.485a15.421,15.421,0,0,1,.01,4.372,12.7,12.7,0,0,1-8.36,9.4c-1.4.479-1.754.507-5.535.535C16040.062,1213.963,16038.251,1213.963,16037.988,1213.944Zm6.182-5.564a9.867,9.867,0,0,0,3.6-2.824,3.633,3.633,0,0,0,.807-2.505,2.4,2.4,0,0,0-.281-1.5,2.35,2.35,0,0,0-1.632-1.239,19.443,19.443,0,0,0-2.355-.1c-2.148,0-2.431.056-3.612.8a6.962,6.962,0,0,0-2.853,3.415,1.532,1.532,0,0,0-.074,1.248,6.092,6.092,0,0,0,.365,1.051,4.158,4.158,0,0,0,1.6,1.689c.469.235.553.244,2.158.244C16043.552,1208.652,16043.581,1208.652,16044.17,1208.38Z" transform="translate(-15897.797 -1193.085)" fill="#fafafa"/>
          <path id="pJrDaWqHj" d="M16871.738,1812.272a3.072,3.072,0,0,1-1.381-2.7,2.14,2.14,0,0,1,.273-1.5,8.534,8.534,0,0,1,2.709-2.749l.609-.319h2.627c2.355,0,2.658.019,2.938.169.688.375.947,1.295.781,2.73a6.064,6.064,0,0,1-.281,1.314,7.379,7.379,0,0,1-3.053,2.871l-.73.375h-2.082C16872.289,1812.45,16872.035,1812.431,16871.738,1812.272Zm4.455-1.163a6.075,6.075,0,0,0,2.627-2.4,1.8,1.8,0,0,0,.34-1.182c0-.741-.189-1.229-.52-1.351a14.392,14.392,0,0,0-2.137-.094c-1.867,0-1.895,0-2.412.253a6.9,6.9,0,0,0-2.344,2.4l-.311.638.152.488a2.261,2.261,0,0,0,.906,1.4,3.846,3.846,0,0,0,1.709.169h1.379Z" transform="translate(-16730.006 -1797.368)" fill="#fafafa"/>
          <path id="pNr4gKNwJ" d="M19119.967,1041.8c.029-.2,1.127-3.284,2.438-6.849l2.395-6.5-2.869-.019-2.871-.028-.029-1.182-.027-1.182.531-.741a35.415,35.415,0,0,1,4.234-4.841l.543-.45h21.254v.319c0,.873-4.336,6.437-5.979,7.685l-.523.394-1.691.047-1.68.047-2.514,6.8-2.516,6.8-5.367.028-5.367.019Zm9.963-1.314c.135-.356,1.268-3.443,2.535-6.877l2.287-6.24,1.916-.047c2.064-.047,2.139-.066,2.654-.666l.188-.216-.271.207c-.262.2-.346.206-2.439.206h-2.168l-2.543,6.878-2.531,6.868-3.678.028-3.68.019v-.31c0-.244,1.258-3.744,4.553-12.592l.3-.844-3.223-.028-3.23-.019v-.328c0-.253.143-.5.639-1.163a31.312,31.312,0,0,1,3.02-3.387l.453-.375h18.334l-.039.375a1.452,1.452,0,0,0-.008.375,10.527,10.527,0,0,0,.779-1.163c0-.038-4.242-.056-9.422-.056h-9.42l-.975.929a33.357,33.357,0,0,0-3.285,3.744c-.461.619-.543.779-.543,1.126v.394h6.191v.319c0,.2-.947,2.881-2.309,6.549-1.266,3.425-2.363,6.38-2.439,6.577l-.121.347h8.229Z" transform="translate(-18957.566 -1019.727)" fill="#fafafa"/>
        </g>
      </g>
      <g id="l6REundltmeZOQ9WCaZeAPL" transform="translate(84.483 43.584)">
        <g id="Group_3" data-name="Group 3">
          <path id="p5MXjGQ87" d="M2185.208,1425.979c-21.439-.047-75.54-.216-81.02-.263-3.378-.028-10.405-.066-15.622-.094-13-.075-26.572-.225-28.1-.328a14.472,14.472,0,0,1-4.626-1.163,15.036,15.036,0,0,1-9.12-10.192,20.759,20.759,0,0,1,7.647-21.415,16.172,16.172,0,0,1,6.549-3.253l.911-.206,14.946-.028,14.947-.037-.1.2c-.15.291-3.537,4.773-5.057,6.694a51.872,51.872,0,0,1-4.635,5.279l-1.267,1.247h-7.834c-5.292,0-7.928.028-8.107.1a5.786,5.786,0,0,0-2.13,2.682c-1.079,2.175-1.116,3.291-.159,5.138a6.076,6.076,0,0,0,1.867,2.072c.338.169,2.73.178,80.785.225l80.438.047-1.144,1.688c-1.671,2.475-3.932,5.616-5.048,7.023-.544.675-1.745,2-2.683,2.944l-1.708,1.707-10.734-.019C2198.3,1426.007,2189.749,1425.989,2185.208,1425.979Zm31.141-2.485c2.017-2.035,3.068-3.385,6.23-8l1.351-1.969-79.744-.047-79.734-.047-.488-.272a6.59,6.59,0,0,1-1.914-1.885c-1.492-2.185-1.577-3.835-.319-6.329a7.342,7.342,0,0,1,2.693-3.188c.385-.178.694-.187,8.2-.187h7.8l.976-1.013a102.492,102.492,0,0,0,8.417-10.314l.234-.309-14.205.038c-14.112.028-14.215.028-15,.225a16.091,16.091,0,0,0-7.45,4.341,20.775,20.775,0,0,0-4.325,5.954,18.624,18.624,0,0,0-1.867,11.486,13.636,13.636,0,0,0,2.73,6.647,15.742,15.742,0,0,0,9.073,5.542l1.117.281,6.3.094c14.374.216,81.761.5,130.467.544l17.865.019Z" transform="translate(-2046.166 -1385.742)" fill="#c22429"/>
          <path id="puutslgD5" d="M14127.272,4159.354a1.208,1.208,0,0,1-.752-.919c-.065-.319-.075-.319-.619-.347a1.563,1.563,0,0,1-.788-.207c-.243-.169-.253-.16-.46.01s-.45.178-3.893.178c-2.027.009-3.866.009-4.091.009a1.319,1.319,0,0,1-.63-.151c-.2-.131-.243-.131-.441,0a4.87,4.87,0,0,1-1.849.142c-.9,0-1.782,0-1.951.009a1.206,1.206,0,0,1-1.124-1.4l.028-.488-.349-.019a4.684,4.684,0,0,1-.47-.019,2.18,2.18,0,0,0-.432.77c-.431,1.032-.6,1.145-1.763,1.145-.835,0-.863-.009-1.146-.292-.224-.225-.3-.263-.364-.159-.206.346-.526.45-1.4.45-1,0-1.274-.142-1.455-.742-.122-.422-.094-.525.611-2.354.29-.742.525-1.38.525-1.417s-.17-.084-.385-.122a1.077,1.077,0,0,1-.893-.872,4.343,4.343,0,0,1,.657-2.017c.356-.535.422-.545,3.378-.545h2.7l.32.319a1.223,1.223,0,0,1,.177,1.454c-.158.451-.168.442.882.292a1.781,1.781,0,0,1,.994.056.959.959,0,0,0,.658.038,13.861,13.861,0,0,1,1.989-.094c1.455,0,1.773.028,2,.16a.426.426,0,0,0,.535.028,4.635,4.635,0,0,1,1.2-.178l.93-.057.318-.75a4,4,0,0,1,.544-.986c.218-.216.292-.234,1.2-.234.882,0,1,.019,1.2.215.179.16.338.206.761.206.994,0,1.473.4,1.473,1.2v.366l.825.066a8.536,8.536,0,0,0,1.407-.028,1.712,1.712,0,0,1,1.333.207c.169.122.234.112.544-.038a1.868,1.868,0,0,1,.732-.178c3.386-.01,3.471-.01,3.725.188a1.248,1.248,0,0,1,.394,1.107c-.112.478-1.838,4.85-2.074,5.245a2.066,2.066,0,0,1-.572.61c-.337.206-.459.215-2.092.234A8.356,8.356,0,0,1,14127.272,4159.354Zm4.08-.741c.281-.263.47-.686,1.3-2.843.545-1.389.985-2.59.985-2.656a.745.745,0,0,0-.234-.347c-.2-.206-.311-.235-.845-.235a2.5,2.5,0,0,0-.815.1,1.7,1.7,0,0,1-.93-.009c-.919-.141-1.3-.075-1.745.31-.216.2-.356.262-.376.188a1.716,1.716,0,0,0-.215-.329c-.161-.2-.234-.215-1-.178a15.344,15.344,0,0,1-2.347-.047l-.777-.056.141-.328a.89.89,0,0,0-.019-.985c-.122-.141-.291-.168-.911-.168-.7,0-.77-.019-.957-.253-.16-.207-.291-.254-.751-.292a1.944,1.944,0,0,0-.891.1c-.3.122-.366.216-.666,1.013l-.329.882-1.022.047c-1.042.057-1.576.216-1.7.526-.065.187-.2.159-.263-.057-.131-.412-.507-.488-2.253-.45-1.575.028-1.631.038-1.866.253l-.243.235-.188-.207c-.271-.291-.563-.338-1.407-.216a2.049,2.049,0,0,1-1.069,0l-.319-.112.243-.666c.282-.789.245-1.107-.149-1.267a29.225,29.225,0,0,0-5.386.066,3.7,3.7,0,0,0-.45.9c-.271.713-.29.817-.17,1.052.113.262.16.271.809.3s.684.038.617.234c-.037.113-.374,1-.748,1.97s-.7,1.83-.7,1.9a.718.718,0,0,0,.236.366c.2.207.308.235.881.235.555,0,.7-.038.882-.207a11.552,11.552,0,0,0,1.051-2.346c.807-2.092.835-2.139,1.1-2.139.14,0,.262.046.262.112s-.318.93-.7,1.924a17.659,17.659,0,0,0-.7,2.045c0,.432.3.61,1.021.61.892,0,1.014-.113,1.521-1.445.356-.957.555-1.3.555-.995a.744.744,0,0,0,.233.328c.188.2.318.235.807.235.506,0,.563.019.506.169-.327.76-.28,1.22.16,1.548.244.179.3.179,1.229.075a2.7,2.7,0,0,1,1.175-.019,2.028,2.028,0,0,0,1.558-.094.63.63,0,0,0,.243-.328c0-.2.065-.168.364.178.3.329.35.329,1.934.272a9.6,9.6,0,0,1,1.249.037c.544.038.73.019.919-.1.206-.131.253-.131.432,0a2.43,2.43,0,0,0,1.671-.009c.244-.15.272-.15.478,0a2.4,2.4,0,0,0,1.587.028c.168-.084.328-.385.655-1.229a5.411,5.411,0,0,1,.592-1.2c.234-.131.206.132-.123.958s-.347,1.154-.083,1.417c.168.169.281.2.92.169l.731-.038-.048.441c-.037.375-.009.469.2.675l.242.244h3.575Z" transform="translate(-13990.05 -4120.862)" fill="#c22429"/>
          <path id="p131sFF7A2" d="M16703.637,4494.973a1.07,1.07,0,0,1,.1-.563c.166-.459.166-.469.57-.469h.477c.037,0,.066.047.066.1s.273.1.781.1a5.17,5.17,0,0,0,.816-.037,1.03,1.03,0,0,0,.084-.234c.068-.217.068-.217-.975-.217-1.109,0-1.41-.083-1.41-.375a9.793,9.793,0,0,1,.49-1.427c.535-1.4.881-1.857,1.369-1.857a8.207,8.207,0,0,1,1.059.15c.713.131.789.131.893,0,.074-.1.254-.15.592-.15a1.219,1.219,0,0,1,.479.047c0,.159-1.83,4.719-1.943,4.859-.131.142-.35.16-1.775.16A6.842,6.842,0,0,1,16703.637,4494.973Zm3.629-2.993a1.9,1.9,0,0,0,.2-.77,2.3,2.3,0,0,0-.781-.1l-.7-.028-.3.75c-.166.413-.309.788-.309.826a2.6,2.6,0,0,0,.816.046l.814-.028Z" transform="translate(-16566.096 -4457.672)" fill="#c22429"/>
          <path id="pKDfdHF7T" d="M14220.15,4275.611c.037-.122.412-1.117.844-2.224s.789-2.073.789-2.139c0-.094-.216-.122-.893-.122a4.158,4.158,0,0,1-.892-.047c0-.019.1-.272.227-.563l.233-.516h2.346a9.007,9.007,0,0,1,2.356.1,3.75,3.75,0,0,1-.159.563l-.17.46h-1.914l-.385,1.013c-.216.554-.629,1.6-.91,2.346l-.525,1.332h-.506C14220.1,4275.817,14220.084,4275.808,14220.15,4275.611Z" transform="translate(-14105.774 -4239.736)" fill="#c22429"/>
          <path id="pVeg5mbJm" d="M14550,4493.641c0-.066.311-.911.676-1.877l.685-1.764h.5c.375,0,.486.038.486.141,0,.15.124.15,1.306-.056,1.106-.188,1.164-.094.741.976l-.31.77-.507.028c-.469.028-.5.019-.441-.159.2-.667.255-.61-.469-.535a2.393,2.393,0,0,0-.731.15,9.768,9.768,0,0,0-.526,1.238l-.44,1.154-.488.028C14550.134,4493.753,14550,4493.725,14550,4493.641Z" transform="translate(-14432.681 -4457.672)" fill="#c22429"/>
          <path id="p1GpSJMKV" d="M15018.806,4493.041a4.847,4.847,0,0,1,.779-2.064c.159-.141.384-.168,1.351-.168,1.165,0,1.174,0,1.259-.244a1.279,1.279,0,0,0,.094-.281,4.368,4.368,0,0,0-.79-.038c-.607,0-.8.028-.844.141-.057.16-.9.207-.9.047a1.982,1.982,0,0,1,.555-.938,11.054,11.054,0,0,1,3.161.028c.047.141-.057.47-.769,2.3l-.525,1.333h-.46c-.347,0-.46-.038-.46-.141,0-.168.075-.168-1.08,0S15018.815,4493.182,15018.806,4493.041Zm2.807-1.088a.636.636,0,0,0,.113-.225,4.329,4.329,0,0,0-1.6,0,2.012,2.012,0,0,1-.058.271c-.057.216-.057.216.678.16C15021.256,4492.122,15021.526,4492.056,15021.612,4491.953Z" transform="translate(-14897.085 -4457.073)" fill="#c22429"/>
          <path id="pOECEocE9" d="M15520.773,4277.112c-.226-.084-.123-.628.308-1.764.536-1.4.649-1.6.911-1.755a5.031,5.031,0,0,1,1.37-.168l1.155-.047.394-.985.385-.985.5-.028c.263-.019.487.009.487.056s-.412,1.154-.929,2.468-1,2.58-1.089,2.833l-.168.441h-.507c-.292,0-.489-.038-.45-.084.1-.178-.133-.187-.947-.057A3.126,3.126,0,0,1,15520.773,4277.112Zm2.711-1.135a16.48,16.48,0,0,0,.638-1.585,6.494,6.494,0,0,0-1.575.046,6.693,6.693,0,0,0-.678,1.633A4.061,4.061,0,0,0,15523.484,4275.978Z" transform="translate(-15394.229 -4241.097)" fill="#c22429"/>
          <path id="pkPvecnlh" d="M16010,4493.641c0-.066.3-.911.677-1.877l.684-1.764h.5c.264,0,.487.028.487.075s-.319.873-.693,1.849l-.7,1.782-.47.028C16010.131,4493.753,16010,4493.725,16010,4493.641Z" transform="translate(-15878.981 -4457.672)" fill="#c22429"/>
          <path id="pLvXR4kDR" d="M16230,4494.99c0-.038.308-.873.693-1.849l.685-1.782.487-.029c.386-.019.48,0,.48.113,0,.178-.067.178,1.256,0,1.117-.151,1.369-.141,1.369.075,0,.066-.289.882-.647,1.811l-.646,1.689-.479.028c-.375.019-.479,0-.479-.112a10.646,10.646,0,0,1,.468-1.333l.461-1.192-.816.065a3.951,3.951,0,0,0-.883.132c-.027.038-.232.525-.45,1.1-.543,1.426-.487,1.361-1.031,1.361C16230.207,4495.065,16230,4495.027,16230,4494.99Z" transform="translate(-16096.919 -4458.983)" fill="#c22429"/>
          <path id="p1Do0IiVvw" d="M16180,4330.976a5.213,5.213,0,0,1,.161-.516l.166-.459h.488c.273,0,.5.028.5.075a5.21,5.21,0,0,1-.159.516l-.158.441h-.5A1.205,1.205,0,0,1,16180,4330.976Z" transform="translate(-16047.387 -4299.168)" fill="#c22429"/>
          <path id="plalUMnwv" d="M19130,4198.125c0-.019.148-.282.33-.583a3.726,3.726,0,0,0,.842-2.289,2.158,2.158,0,0,0-.215-1.1l-.207-.394.338-.572c.178-.31.459-.845.619-1.182a1.924,1.924,0,0,0,.232-1.315l-.045-.694h6.146c5.385,0,6.135.019,6.088.141a48.121,48.121,0,0,1-3.145,4.457,25.452,25.452,0,0,1-2.617,2.777l-.871.779-3.744.009C19131.691,4198.163,19130,4198.154,19130,4198.125Z" transform="translate(-18969.707 -4160.486)" fill="#c22429"/>
          <path id="pPRjfcoJT" d="M2400.095,1712.756c-19.207-.056-52.759-.234-59.224-.309l-7.478-.094-1.248-.319c-5.432-1.4-9.045-4.678-10.208-9.272a15.483,15.483,0,0,1-.441-4.781,15.837,15.837,0,0,1,1.905-7.322c2.393-4.828,6.6-8.419,10.762-9.2.666-.122,2.327-.141,12.938-.122l12.179.028-1.286,1.687a47.82,47.82,0,0,1-4.259,5.053l-1.192,1.228-7.684.047-7.685.047-.647.328a10.08,10.08,0,0,0-4.644,7.875,8.75,8.75,0,0,0,1.6,4.181,8.012,8.012,0,0,0,3.237,2.841l.516.2h36.827c29.433,0,36.827.028,36.79.122-.019.056-.619,1.134-1.314,2.391s-1.341,2.494-1.435,2.756a3.008,3.008,0,0,0,.178,2.166,1.119,1.119,0,0,1,.178.478,6.062,6.062,0,0,1-1.088.037C2406.8,1712.784,2403.529,1712.765,2400.095,1712.756Z" transform="translate(-2318.898 -1675.333)" fill="#c22429"/>
          <path id="p6fmwfBk7" d="M17373.043,4158.033a1.945,1.945,0,0,0-.488-.076c-.139.019-.918.019-3.191.019-.121,0-1.32.019-2.672.038l-2.459.047-.309-.282c-.545-.488-.49-.807.852-4.231,1.42-3.65,1.361-3.566,2.682-3.566.857,0,.9.009,1.193.272.488.431.443.929-.279,2.759-.318.816-.582,1.5-.582,1.52a2.49,2.49,0,0,0,.693.047h.686v-.347c-.02-.826.762-2.187,1.238-2.187.111,0,.227-.131.32-.375.225-.572.6-.75,1.584-.75.77,0,.846.018,1.117.262a1.054,1.054,0,0,1,.357.638c.057.319.092.366.291.338.129-.019.676-.056,1.209-.094l.967-.065.281-.7a2.711,2.711,0,0,1,.59-1c.322-.3.35-.31,1.127-.31.9,0,1.25.122,1.453.516.227.423.143.873-.486,2.487l-.6,1.548.311.065a1.019,1.019,0,0,1,.834.563c.207.394.141.882-.242,1.792-.471,1.126-.4,1.107-3.143,1.08-1.24-.01-2.422.009-2.629.038A1.771,1.771,0,0,1,17373.043,4158.033Zm-4.186-.545a.757.757,0,0,0,.357-.328l.131-.244.131.244c.18.338.646.451,1.775.4.881-.028.975-.048,1.125-.254l.17-.225.2.2c.289.292.59.338,1.48.225a2.681,2.681,0,0,1,1.031-.019,2.865,2.865,0,0,0,1.549-.038c.207-.1.271-.1.414,0a1.758,1.758,0,0,0,1.473-.056,3.91,3.91,0,0,0,.732-1.708c0-.384-.264-.544-.908-.544-.322,0-.6-.028-.6-.075s.33-.929.744-1.98c.787-2.045.826-2.28.373-2.523a1.978,1.978,0,0,0-.863-.094c-.777.038-.869.122-1.273,1.21l-.309.816-1.062.038c-.928.028-1.1.056-1.352.244l-.283.207-.23-.235a.846.846,0,0,0-.33-.235c-.049,0-.068-.159-.037-.347.064-.554-.115-.713-.855-.76-.854-.056-1.115.076-1.361.647-.156.348-.25.459-.412.459-.328.01-.525.216-.766.835-.275.657-.293,1-.086,1.239a.456.456,0,0,1,.086.45c-.078.366-.209.441-.416.254-.131-.122-.393-.151-1.314-.151-1.057,0-1.154-.009-1.086-.159.619-1.549,1.453-3.82,1.453-3.95a.6.6,0,0,0-.2-.357,2.4,2.4,0,0,0-1.82-.028c-.178.168-2.486,6.1-2.486,6.37a.626.626,0,0,0,.246.366c.232.188.361.2,2.295.2A15.9,15.9,0,0,0,17368.857,4157.488Z" transform="translate(-17219.881 -4120.845)" fill="#d72638"/>
          <path id="pC6eDueY1" d="M17480,4275.72c0-.122,2.092-5.508,2.186-5.629a1.154,1.154,0,0,1,.947-.038,16.166,16.166,0,0,1-.791,2.261c-.457,1.192-.842,2.215-.842,2.262a6.237,6.237,0,0,0,1.465.084c1.357,0,1.463.01,1.4.169-.039.084-.133.338-.205.563l-.143.395h-2.006A15.118,15.118,0,0,1,17480,4275.72Z" transform="translate(-17335.189 -4239.704)" fill="#c22429"/>
          <path id="pJac1zd97" d="M18041.758,4376.193c-.187-.076-.16-.188.346-1.492.264-.667.471-1.229.471-1.239a.93.93,0,0,0-.33-.028h-.328l.178-.441c.16-.4.207-.451.527-.5s.363-.084.553-.562l.207-.516.488-.028c.289-.019.488.009.488.065a3.837,3.837,0,0,1-.182.572l-.176.469h.469c.34,0,.459.038.42.123-.02.056-.092.271-.168.469-.123.337-.131.347-.609.347h-.479l-.346.891c-.187.488-.34.911-.34.938a1.429,1.429,0,0,0,.518.047h.516l-.168.45-.17.441-.883.019A7.682,7.682,0,0,1,18041.758,4376.193Z" transform="translate(-17891.568 -4340.168)" fill="#c22429"/>
          <path id="pT9QWtACw" d="M18373.975,4275.68c-.094-.207-.035-.422.432-1.623a7.236,7.236,0,0,1,.768-1.613c.219-.226.293-.235,1.439-.264l1.221-.038.346-.9a6.69,6.69,0,0,1,.441-1.023c.094-.131.873-.169.936-.047.02.038-.449,1.333-1.049,2.88l-1.1,2.815-.49.028c-.391.019-.488,0-.488-.122s-.066-.141-.3-.094C18374.3,4275.98,18374.119,4275.98,18373.975,4275.68Zm2.814-.938c.02-.009.168-.394.35-.834l.316-.817-.814.029c-.932.028-.838-.047-1.295,1.154l-.232.638.822-.065A6.316,6.316,0,0,0,18376.789,4274.741Z" transform="translate(-18220.738 -4239.833)" fill="#c22429"/>
          <path id="pqjsuQ2jE" d="M18860,4771.022a3.845,3.845,0,0,1,.158-.563c.158-.45.17-.46.563-.46.227,0,.4.028.4.075a4.82,4.82,0,0,1-.176.535c-.17.451-.2.469-.566.5C18860.143,4771.125,18860,4771.1,18860,4771.022Z" transform="translate(-18702.244 -4735.044)" fill="#c22429"/>
          <path id="pq3dSMOpx" d="M11683.5,4157.807a1.125,1.125,0,0,1-.264-1.267,72.774,72.774,0,0,1,4.945-6.4,2.55,2.55,0,0,1,1.031-.141c1.323,0,1.6.31,1.6,1.792v.854l.328-.291c.317-.282.364-.291,1.21-.291.723,0,.92.028,1.1.178.206.169.226.169.5,0,.233-.141.478-.178,1.294-.178h.994l.2-.4c.283-.591.581-.723,1.587-.723s1.255.141,1.464.826c.084.3.168.423.251.4s1-.057,2.057-.076c2.119-.038,2.345.009,2.654.544.291.488.207,1.014-.45,2.74-.684,1.8-.834,2.092-1.284,2.42l-.31.235-3.472.019c-3.294.019-3.481.01-3.783-.16-.308-.188-.308-.188-.571.01-.235.169-.356.188-1.192.14-.5-.019-.994-.047-1.068-.047s-1.051.01-2.159.047c-1.951.047-2.035.038-2.271-.15a1.223,1.223,0,0,1-.364-.516c-.113-.3-.15-.328-.507-.328-.337,0-.423.047-.816.488l-.431.5-1,.029C11683.774,4158.088,11683.774,4158.088,11683.5,4157.807Zm1.978-.291a1.637,1.637,0,0,0,.526-.516l.311-.432h1.584v.282a.747.747,0,0,0,.236.526c.224.225.28.235,1.012.187.423-.028.873-.047,1-.047s.555-.009.939-.019a17.424,17.424,0,0,1,2.3.057c.957.075,1.043.009,1.521-1.22.535-1.351.686-1.679.742-1.614a4.119,4.119,0,0,1-.292.967c-.375,1-.385,1.379-.037,1.689.167.15.374.187,1.276.206.967.029,1.115.019,1.341-.15s.264-.179.411-.038.405.159,2.029.159h1.877l.317-.329a6.233,6.233,0,0,0,.939-1.942c.61-1.6.722-2.092.5-2.383-.241-.319-.5-.366-2.147-.366-1.425,0-1.681.019-1.988.178-.347.179-.356.179-.536,0a.645.645,0,0,0-.261-.178c-.057,0-.086-.178-.076-.384.02-.563-.234-.742-1.061-.742-.75,0-1.033.169-1.2.732-.131.441-.309.488-1.442.413s-1.211-.028-1.737,1.351c-.337.873-.487,1.164-.609,1.164-.225,0-.215-.028.159-.966a6.465,6.465,0,0,0,.328-.957.714.714,0,0,0-.234-.375c-.2-.206-.31-.235-.871-.235-.489,0-.706.047-.855.169a10.947,10.947,0,0,0-1.041,2.44.114.114,0,0,1-.113.112,6.931,6.931,0,0,1-.037-2.139c.076-2.552.076-2.552-.814-2.627-1.109-.093-.939-.244-3.38,2.965-1.2,1.585-2.261,2.983-2.345,3.115a.529.529,0,0,0,.074.8c.2.2.31.235.834.235A3.223,3.223,0,0,0,11685.481,4157.516Z" transform="translate(-11592.727 -4120.862)" fill="#c22429"/>
          <path id="p18sM618Ae" d="M11804.942,4276.707c.112-.187,3.594-4.766,4.007-5.264.366-.44.386-.45.854-.422l.478.028.029,2.486c.02,1.37,0,2.666-.029,2.891l-.054.394h-1.023v-1.031h-2.515l-.384.515-.4.516h-.517C11805.009,4276.819,11804.9,4276.791,11804.942,4276.707Zm4.308-2.158a7.86,7.86,0,0,0,.029-1.2l-.029-.985-.8,1.079c-.44.591-.834,1.136-.881,1.2-.049.084.131.112.778.112C11809.156,4274.755,11809.2,4274.745,11809.25,4274.549Z" transform="translate(-11713.368 -4240.738)" fill="#c22429"/>
          <path id="pn2ZrZd44" d="M12471.1,4492.7c-.143-.131-.039-.506.562-2.064l.629-1.623h.5a1.3,1.3,0,0,1,.5.047c0,.028-.206.6-.47,1.267s-.468,1.238-.468,1.276a5.126,5.126,0,0,0,1.634-.16,9.7,9.7,0,0,0,.524-1.229l.44-1.154.536-.028.524-.028-.168.451c-.105.244-.433,1.1-.733,1.886l-.553,1.426h-.489c-.375,0-.5-.038-.5-.141,0-.169,0-.169-1.172,0C12471.315,4492.782,12471.186,4492.782,12471.1,4492.7Z" transform="translate(-12373.231 -4456.682)" fill="#c22429"/>
          <path id="p4OrhIy3i" d="M13020.772,4374.813c-.131-.122-.056-.4.357-1.473.233-.6.422-1.136.422-1.182s-.123-.094-.282-.094c-.329,0-.329-.01-.131-.535.148-.375.178-.4.507-.4.347,0,.356-.009.563-.563l.206-.562h.508a1.358,1.358,0,0,1,.506.046c0,.019-.085.253-.188.516s-.186.5-.186.516a1.091,1.091,0,0,0,.458.047h.461l-.17.45c-.17.441-.17.441-.665.488l-.5.047-.31.8a7.1,7.1,0,0,0-.309.92c0,.075.158.112.469.112.261,0,.469.028.469.066a2.846,2.846,0,0,1-.151.469l-.159.4h-.91A3.972,3.972,0,0,1,13020.772,4374.813Z" transform="translate(-12917.742 -4338.798)" fill="#c22429"/>
          <path id="pfofDHmfr" d="M13340.6,4493.6c-.066-.169-.029-.291.656-2.046a7.4,7.4,0,0,1,.638-1.379c.159-.159.338-.178,1.754-.178a9.894,9.894,0,0,1,1.7.084c.15.094.15.1-.572,1.951a5.764,5.764,0,0,1-.761,1.577c-.159.112-.525.141-1.782.141C13340.867,4493.753,13340.659,4493.734,13340.6,4493.6Zm3.161-1.6c.169-.459.328-.882.356-.948.028-.093-.141-.112-.787-.093l-.826.028-.31.8a7.06,7.06,0,0,0-.31.92c0,.084.216.113.787.113h.78Z" transform="translate(-13234.608 -4457.672)" fill="#c22429"/>
          <path id="pqyld7x7I" d="M8078.164,3221.135a10.744,10.744,0,0,0,.826-.751,1.839,1.839,0,0,1,.441-.385,11.215,11.215,0,0,1-1.623,1.5C8077.75,3221.5,8077.911,3221.341,8078.164,3221.135Z" transform="translate(-8021.202 -3199.576)" fill="#c22429"/>
          <path id="p8cDB8lZV" d="M10908.228,2817.946c-1.463-1.3-2.785-2.487-2.946-2.646l-.281-.3.281.244c.555.469,5.255,4.616,5.49,4.832.121.122.207.226.178.226S10909.691,2819.241,10908.228,2817.946Z" transform="translate(-10821.881 -2798.374)" fill="#c22429"/>
          <path id="pxDPQyqVq" d="M6190,1071.383a7.094,7.094,0,0,1,.187-.948l.2-.75,6.671-8.548c3.669-4.71,6.953-8.829,7.291-9.157a8.851,8.851,0,0,1,2.308-1.708l.563-.272h3.246c3.8,0,3.951.019,4.664.741a5.645,5.645,0,0,1,.8,1.107c.639,1.22.62,1.117,3.022,16.12.187,1.135.384,2.411.459,2.843l.122.769h-9.6l-.169-.882a5.184,5.184,0,0,0-.226-.938,6.465,6.465,0,0,0-1.013.882l-.966.938H6190Zm17.752-.591a15.644,15.644,0,0,0,1.276-1.239,7.673,7.673,0,0,1,.891-.882c.01.028.131.572.254,1.22l.234,1.173,4.25.028a36.9,36.9,0,0,0,4.241-.075c0-.047-.572-3.725-1.267-8.163-1.341-8.5-1.519-9.374-2.167-10.6a3.106,3.106,0,0,0-1.294-1.51c-.347-.16-.675-.178-3.7-.178-3.189,0-3.322.009-3.706.2a9.63,9.63,0,0,0-2.177,1.7c-.854.891-13.586,17.2-13.708,17.555a4.032,4.032,0,0,0-.178.7l-.066.394h16.691Z" transform="translate(-6151.119 -1049.923)" fill="#d72638"/>
          <path id="p2a4NXO7q" d="M6400,1238.247c0-.206,12.732-16.091,13.661-17.039a8.913,8.913,0,0,1,1.107-.966l.46-.3h3.256c3.763,0,3.528-.056,4.025.966s.742,2.233,1.934,9.683c.647,4.025,1.2,7.431,1.229,7.581l.056.253h-3.2c-2.956,0-3.19-.009-3.237-.16-.028-.094-.206-.976-.394-1.961l-.338-1.8-.854,1.135a24.808,24.808,0,0,1-1.661,1.961l-.808.826h-7.618C6400.226,1238.426,6400,1238.416,6400,1238.247Zm18.484-4.672c.01-.338-1.173-7.91-1.238-7.91-.131,0-5.986,7.713-5.986,7.881,0,.188.084.188,3.612.188C6418.25,1233.734,6418.484,1233.725,6418.484,1233.575Z" transform="translate(-6359.15 -1218.269)" fill="#c22429"/>
          <path id="p15jq1Z5SO" d="M7810,2102.429c0-.047.751-1.061,1.67-2.261l1.661-2.167.347,2.092c.188,1.154.348,2.177.348,2.271.009.15-.151.16-2.008.16A9.581,9.581,0,0,1,7810,2102.429Zm3.378-.629a22.068,22.068,0,0,0-.394-2.327,28.736,28.736,0,0,0-1.9,2.374c-.056.084.2.113,1.107.113C7813.256,2101.96,7813.378,2101.941,7813.378,2101.8Z" transform="translate(-7755.919 -2088.097)" fill="#c22429"/>
          <path id="pneRyCaLA" d="M9570,1070.505c0-.047.4-1.154.9-2.458,2.413-6.39,3.359-8.885,5.2-13.765l2-5.282,9.252.037c8.069.019,9.308.047,9.721.169a5.211,5.211,0,0,1,3.472,3.687,12.209,12.209,0,0,1,.179,4.635,6.69,6.69,0,0,1-3.613,4.475,19.31,19.31,0,0,1-2.993,1.032l-.7.169,3.753,3.688,3.754,3.7H9588.7l-3.123-2.768c-1.718-1.52-3.154-2.749-3.191-2.721s-.518,1.267-1.077,2.759l-1.014,2.73h-5.152C9572.253,1070.59,9570,1070.552,9570,1070.505Zm10.039-.779c.095-.225.6-1.539,1.127-2.937s.994-2.571,1.032-2.608,1.585,1.276,3.435,2.927l3.366,3,5.284.009c3.134,0,5.271-.037,5.271-.084s-1.6-1.661-3.564-3.584-3.566-3.528-3.566-3.566a3.33,3.33,0,0,1,.826-.216,10.25,10.25,0,0,0,5.245-2.336c1.492-1.4,2.026-3,1.812-5.47a12.877,12.877,0,0,0-.245-1.67,5.109,5.109,0,0,0-2.261-3.087c-1-.535-.871-.535-10.5-.535-8.331,0-8.839.009-8.9.169-.038.084-.827,2.167-1.755,4.616s-1.989,5.282-2.374,6.286c-2.655,7.018-3.519,9.317-3.519,9.392,0,.047,1.849.084,4.56.084h4.552Z" transform="translate(-9499.407 -1048.932)" fill="#d72638"/>
          <path id="pAy7SI7Rx" d="M9813.454,1239.648c.027-.094,1.585-4.241,3.461-9.223l3.406-9.054,8.436-.028c9.158-.019,8.97-.028,9.795.488a4.168,4.168,0,0,1,1.277,1.464,6.417,6.417,0,0,1,.553,3.143,4.878,4.878,0,0,1-.2,1.942,6.114,6.114,0,0,1-3.379,3.209,19.852,19.852,0,0,1-5.019,1.135,3.079,3.079,0,0,0-.545.084c0,.01,1.577,1.586,3.5,3.509l3.49,3.49h-3.848l-3.847-.009-2.627-2.346c-1.445-1.295-3.124-2.8-3.725-3.331l-1.1-.976-.226.207a16.4,16.4,0,0,0-1.333,3.218c-.608,1.651-1.125,3.059-1.145,3.125a16.662,16.662,0,0,1-3.518.113C9813.612,1239.808,9813.407,1239.8,9813.454,1239.648Zm16.307-11.381c3.04,0,3.05,0,3.246-.206a1.9,1.9,0,0,0,.3-.5,2.125,2.125,0,0,0-.009-1.417c-.113-.1-.808-.131-3.923-.131-2.082-.01-3.819.028-3.856.066-.065.075-1.971,5.048-1.971,5.151,0,.028.714-.619,1.587-1.454l1.575-1.511Z" transform="translate(-9740.571 -1219.651)" fill="#c22429"/>
          <path id="pr59S6Kh7" d="M11171.9,1831.46c.037-.094.741-.132,3.115-.15,2.449-.019,3.068,0,3.04.094s-.742.131-3.115.15C11172.5,1831.573,11171.876,1831.554,11171.9,1831.46Z" transform="translate(-11086.279 -1823.895)" fill="#c22429"/>
          <path id="pyy9mAh69" d="M12142.993,2589.472c-1.9-1.876-3.462-3.415-3.48-3.424a.046.046,0,0,1,0-.066c.019-.019,1.622,1.52,3.556,3.425s3.491,3.462,3.443,3.462S12144.9,2591.34,12142.993,2589.472Z" transform="translate(-12044.797 -2571.505)" fill="#c22429"/>
          <path id="plZq6ancH" d="M6197.8,1071.661c0-.15,13.436-17.255,13.971-17.771a10.423,10.423,0,0,1,2.008-1.567c.441-.235.271-.075-.31.281a16.73,16.73,0,0,0-3.725,3.838C6196.738,1073.106,6197.8,1071.765,6197.8,1071.661Z" transform="translate(-6158.826 -1052.115)" fill="#c22429"/>
          <path id="pjJOhI0uu" d="M12434.833,2185.675a8.027,8.027,0,0,0,2.8-2.412c.142-.207.149-.207.065-.028a7.509,7.509,0,0,1-2.834,2.524C12434.206,2186.1,12434.188,2186.031,12434.833,2185.675Z" transform="translate(-12336.891 -2172.403)" fill="#c22429"/>
          <path id="p7gRdORQg" d="M12804.339,2104.1c.085-.178.17-.31.2-.291a1.422,1.422,0,0,1-.308.619C12804.2,2104.431,12804.256,2104.281,12804.339,2104.1Z" transform="translate(-12703.281 -2093.851)" fill="#c22429"/>
          <path id="pldYHVNJS" d="M12583.033,1083.959a5.389,5.389,0,0,0-.938-.9c-.714-.525-.759-.572-.375-.375a6.212,6.212,0,0,1,1.557,1.454C12583.521,1084.559,12583.427,1084.494,12583.033,1083.959Z" transform="translate(-12482.632 -1082.192)" fill="#c22429"/>
          <path id="ptNbszLNg" d="M8813.015,1043.124a4.345,4.345,0,0,0-1.294-1.285c-.065,0-.085-.028-.057-.056.178-.178,1.182.816,1.557,1.539C8813.418,1043.687,8813.259,1043.546,8813.015,1043.124Z" transform="translate(-8748.174 -1041.761)" fill="#c22429"/>
        </g>
      </g>
      <g id="lARbG0ELPtKYK6tNv4j25x" transform="translate(188.92 44.224)">
        <g id="Group_4" data-name="Group 4">
          <path id="pQ6bJvT2K" d="M13176.982,1130.483c-.02-.047,1.491-4.279,3.367-9.411s3.548-9.73,3.716-10.2l.3-.873h4.438c2.44,0,4.438.019,4.438.047s-1.116,3.1-2.486,6.812-2.485,6.774-2.485,6.8,2.515.037,5.591.037h5.593l-.253.451a67.225,67.225,0,0,1-4.1,5.63l-.647.769h-8.717C13180.94,1130.548,13177,1130.52,13176.982,1130.483Zm18.738-3.331,2.043-2.374-5.45-.028c-3.538-.009-5.452-.056-5.452-.113s1.1-3.115,2.439-6.8,2.439-6.727,2.439-6.756-1.491-.047-3.312-.047h-3.321l-3.312,9.129c-1.82,5.01-3.331,9.176-3.349,9.242-.038.084,1.519.113,7.59.113h7.637Z" transform="translate(-13176.982 -1110)" fill="#282725"/>
          <path id="psw80VP01" d="M15959.229,1131.388c-5.038-.328-7.787-2.2-8.481-5.8a15.881,15.881,0,0,1,.01-4.072,12.994,12.994,0,0,1,4.1-7.065,13.228,13.228,0,0,1,6.605-3.425,88.773,88.773,0,0,1,9.89.131,10.531,10.531,0,0,1,4.138,1.614,6.613,6.613,0,0,1,2.309,3.509,14.158,14.158,0,0,1-.01,4.494,12.535,12.535,0,0,1-3.705,6.671,13.268,13.268,0,0,1-6.746,3.762,18.383,18.383,0,0,1-3.915.225C15961.771,1131.454,15959.886,1131.435,15959.229,1131.388Zm7.9-1.173a12.9,12.9,0,0,0,9.251-8.247,11.6,11.6,0,0,0,.356-5.32c-.534-2.411-2.354-3.847-5.62-4.476a32.535,32.535,0,0,0-5.3-.159c-4.38,0-4.465,0-5.206.216-4.392,1.267-8.331,5.658-8.866,9.88-.3,2.4.047,4.241,1.062,5.573,1.236,1.642,3.207,2.458,6.584,2.711.263.019,1.953.019,3.754.01A21.235,21.235,0,0,0,15967.13,1130.215Z" transform="translate(-15924.597 -1110.934)" fill="#282725"/>
          <path id="pGOvY0re2" d="M16792.084,1728.764a4.326,4.326,0,0,1-2.082-3.622c0-1.361,1.348-3.284,3.037-4.344,1.211-.751,1.428-.8,3.895-.8a23.22,23.22,0,0,1,2.637.1,2.358,2.358,0,0,1,1.643,1.248c.271.544.283.6.271,1.783a3.732,3.732,0,0,1-.807,2.777,9.893,9.893,0,0,1-3.6,2.824l-.6.272h-1.951C16792.617,1729.007,16792.563,1729,16792.084,1728.764Zm5.01-1.164a7.344,7.344,0,0,0,3.039-2.862,3.841,3.841,0,0,0,0-3.031c-.365-.591-.535-.629-3.143-.629h-2.346l-.611.319a8.672,8.672,0,0,0-2.721,2.749,1.822,1.822,0,0,0-.26,1.22,3.16,3.16,0,0,0,1.377,2.421c.3.159.555.178,2.131.188h1.8Z" transform="translate(-16756.102 -1714.277)" fill="#282725"/>
          <path id="p1FxeeQI6x" d="M16961.709,1895.742a2.933,2.933,0,0,1-1.012-1.952,1.7,1.7,0,0,1,.264-1.135,6.925,6.925,0,0,1,2.344-2.4l.516-.253H16966a17.821,17.821,0,0,1,2.42.094c.385.15.555.657.535,1.651a2.042,2.042,0,0,1-.35,1.436,7.942,7.942,0,0,1-.627.91,8.151,8.151,0,0,1-2.008,1.5l-.609.319h-1.66C16962.311,1895.911,16961.98,1895.883,16961.709,1895.742Z" transform="translate(-16925.184 -1882.681)" fill="#282725"/>
          <path id="p1E46S5Yb1" d="M19211.189,1130.483c-.018-.047,1.1-3.115,2.479-6.831s2.512-6.784,2.512-6.821a29.57,29.57,0,0,0-3.084-.075h-3.1V1115.4l.543-.723a33.386,33.386,0,0,1,3.287-3.744l.975-.929h9.842c7.814,0,9.84.028,9.84.122a29.609,29.609,0,0,1-3.937,5.161c-1.465,1.53-1.211,1.417-3.455,1.473l-1.912.047-2.291,6.239c-1.262,3.434-2.4,6.521-2.529,6.877l-.246.629h-4.439C19213.225,1130.548,19211.207,1130.52,19211.189,1130.483Zm10.764-7.882,2.541-6.878h4.342l.461-.366a22.331,22.331,0,0,0,3.436-4.035l.168-.291h-17.762l-.449.375a31.155,31.155,0,0,0-3.041,3.406l-.645.863,3.357.028c2.617.019,3.342.047,3.3.141-.021.056-.273.751-.564,1.52-1.141,3.087-4.41,11.926-4.445,12.038-.039.094.645.113,3.357.094l3.408-.028Z" transform="translate(-19153.393 -1110)" fill="#282725"/>
        </g>
      </g>
    </g>
  </g>
</svg>
